# Wavefront OBJ exported by MilkShape 3D

mtllib kiosk2.mtl

v 4.853302 1.627670 -2.789618
v 4.873508 1.627670 2.892181
v 0.000779 1.627670 0.023094
v 4.853302 8.861524 -2.789618
v 0.000779 8.861524 0.023094
v 4.873508 8.861524 2.892181
v 4.853302 1.627670 -2.789618
v 4.853302 8.861524 -2.789618
v 4.873508 1.627670 2.892181
v 4.873508 8.861524 2.892181
v 1.970214 1.627670 5.015283
v 1.970214 8.861524 5.015283
v 4.873508 1.627670 2.892181
v 4.873508 8.861524 2.892181
v 1.970214 8.861524 5.015283
v 1.970214 1.627670 5.015283
v -2.086182 1.627670 4.997941
v -2.086182 8.861524 4.997941
v 1.970214 1.627670 5.015283
v 1.970214 8.861524 5.015283
v -2.086182 1.627670 4.997941
v -2.086182 8.861524 4.997941
v -4.919968 1.627670 2.847589
v -4.919968 8.861524 2.847589
v -2.086182 1.627670 4.997941
v -2.086182 8.861524 4.997941
v -4.919968 8.861524 2.847589
v -4.919968 1.627670 2.847589
v -4.803240 1.627670 -2.832016
v -4.803240 8.861524 -2.832016
v -4.919968 1.627670 2.847589
v -4.919968 8.861524 2.847589
v -4.803240 1.627670 -2.832016
v -4.803240 8.861524 -2.832016
v -1.940539 1.627670 -4.834891
v -1.940539 8.861524 -4.834891
v -4.803240 1.627670 -2.832016
v -4.803240 8.861524 -2.832016
v -1.940539 8.861524 -4.834891
v -1.940539 1.627670 -4.834891
v 2.059139 1.627670 -4.818406
v 2.059139 8.861524 -4.818406
v -1.940539 1.627670 -4.834891
v -1.940539 8.861524 -4.834891
v 2.059139 1.627670 -4.818406
v 2.059139 8.861524 -4.818406
v 2.059139 1.627670 -4.818406
v 2.059139 8.861524 -4.818406
v 4.853302 8.861524 -2.789618
v 4.853302 1.627670 -2.789618
v 3.103852 4.409971 5.602425
v 3.103852 0.993570 5.602425
v 5.474367 4.409971 3.790296
v 5.474367 0.993570 3.790296
v 4.371007 4.409971 2.592354
v 4.371007 0.993570 2.592354
v 2.000495 4.409971 4.404485
v 2.000495 0.993570 4.404485
v -4.711301 9.004722 3.914282
v -4.711301 7.723179 3.914282
v -2.921036 9.004722 5.329019
v -2.921036 7.723179 5.329019
v -2.315372 9.004722 4.486153
v -2.315372 7.723179 4.486153
v -4.105642 9.004722 3.071411
v -4.105642 7.723179 3.071411
v -1.940810 8.788092 -4.843497
v -1.940810 8.023968 -4.843497
v 2.070225 8.788092 -4.843497
v 2.070225 8.023968 -4.843497
v 2.070225 8.788092 -5.042004
v 2.070225 8.023968 -5.042004
v -1.940810 8.788092 -5.042004
v -1.940810 8.023968 -5.042004
v 1.916937 8.727486 -4.904318
v 1.916937 7.963362 -4.904318
v 5.077678 8.727486 -2.643607
v 5.077678 7.963362 -2.643607
v 5.211178 8.727486 -2.800035
v 5.211178 7.963362 -2.800035
v 2.050435 8.727486 -5.060745
v 2.050435 7.963362 -5.060745
v -4.906996 8.727486 -2.579764
v -4.906996 7.963362 -2.579764
v -1.789836 8.727486 -4.890630
v -1.789836 7.963362 -4.890630
v -1.926297 8.727486 -5.044900
v -1.926297 7.963362 -5.044900
v -5.043458 8.727486 -2.734033
v -5.043458 7.963362 -2.734033
v -5.039445 8.604294 2.725447
v -5.039445 8.216509 2.725447
v 5.027317 8.604294 2.725447
v 5.027317 8.216509 2.725447
v 5.027317 8.604294 2.725447
v 5.027317 8.216509 2.725447
v 5.027317 8.604294 -2.684515
v 5.027317 8.216509 -2.684515
v 5.027317 8.604294 -2.684515
v 5.027317 8.216509 -2.684515
v -5.039445 8.604294 -2.684515
v -5.039445 8.216509 -2.684515
v -5.039445 8.604294 -2.684515
v -5.039445 8.216509 -2.684515
v -5.039445 8.604294 2.725447
v -5.039445 8.216509 2.725447
v -5.039445 8.604294 2.725447
v 5.027317 8.604294 2.725447
v -5.039445 8.216509 2.725447
v 5.027317 8.216509 2.725447
v 4.766959 9.697859 0.557253
v 4.941609 9.610958 1.112710
v 4.941609 9.100779 0.099107
v -4.769573 9.697859 0.557253
v -4.944433 9.100779 0.099107
v -4.944433 9.610958 1.112710
v 4.766959 9.697859 0.557253
v -4.769573 9.697859 0.557253
v 4.941609 9.610958 1.112710
v -4.944433 9.610958 1.112710
v 4.941609 9.231379 2.404915
v -4.944433 9.231379 2.404915
v -4.944433 9.231379 2.404915
v 4.941609 9.231379 2.404915
v 4.941609 8.847540 2.885611
v -4.944433 8.847540 2.885611
v 4.941609 8.847540 2.885611
v -4.944433 8.847540 2.885611
v 4.941609 8.837877 -2.707284
v -4.944433 8.837877 -2.707284
v 4.941609 9.207254 -2.124058
v -4.944433 9.207254 -2.124058
v 4.941609 8.837877 -2.707284
v -4.944433 8.837877 -2.707284
v 4.941609 9.207254 -2.124058
v -4.944433 9.207254 -2.124058
v 4.941609 9.586721 -0.921850
v -4.944433 9.586721 -0.921850
v -4.944433 9.586721 -0.921850
v 4.941609 9.586721 -0.921850
v 4.766959 9.687822 -0.299932
v -4.769573 9.687822 -0.299932
v 4.766959 9.687822 -0.299932
v -4.769573 9.687822 -0.299932
v 0.305119 9.697859 -5.036020
v 0.725278 9.610958 -4.949782
v -0.010522 9.100779 -4.949782
v 0.305119 9.697859 5.159609
v -0.010522 9.100779 5.074053
v 0.725278 9.610958 5.074053
v 0.305119 9.697859 -5.036020
v 0.305119 9.697859 5.159609
v 0.725278 9.610958 -4.949782
v 0.725278 9.610958 5.074053
v 1.663324 9.231379 -4.949782
v 1.663324 9.231379 5.074053
v 1.663324 9.231379 5.074053
v 1.663324 9.231379 -4.949782
v 2.012273 8.847540 -4.949782
v 2.012273 8.847540 5.074053
v 2.012273 8.847540 -4.949782
v 2.012273 8.847540 5.074053
v -2.047755 8.837877 -4.949782
v -2.047755 8.837877 5.074053
v -1.624374 9.207254 -4.949782
v -1.624374 9.207254 5.074053
v -2.047755 8.837877 -4.949782
v -2.047755 8.837877 5.074053
v -1.624374 9.207254 -4.949782
v -1.624374 9.207254 5.074053
v -0.751661 9.586721 -4.949782
v -0.751661 9.586721 5.074053
v -0.751661 9.586721 5.074053
v -0.751661 9.586721 -4.949782
v -0.285021 9.687822 -5.036020
v -0.285021 9.687822 5.159609
v -0.285021 9.687822 -5.036020
v -0.285021 9.687822 5.159609
v 3.628070 9.697859 -3.653231
v 4.074319 9.610958 -3.349594
v 3.510661 9.100779 -3.782581
v -3.161211 9.697859 4.157083
v -3.527444 9.100779 3.896132
v -2.963787 9.610958 4.329118
v 3.628070 9.697859 -3.653231
v -3.161211 9.697859 4.157083
v 4.074319 9.610958 -3.349594
v -2.963787 9.610958 4.329118
v 4.792905 9.231379 -2.797593
v -2.245203 9.231379 4.881118
v -2.245203 9.231379 4.881118
v 4.792905 9.231379 -2.797593
v 5.060217 8.847540 -2.592252
v -1.977892 8.847540 5.086460
v 5.060217 8.847540 -2.592252
v -1.977892 8.847540 5.086460
v 1.950051 8.837877 -4.981400
v -5.088056 8.837877 2.697311
v 2.274380 9.207254 -4.732260
v -4.763727 9.207254 2.946451
v 1.950051 8.837877 -4.981400
v -5.088056 8.837877 2.697311
v 2.274380 9.207254 -4.732260
v -4.763727 9.207254 2.946451
v 2.942917 9.586721 -4.218704
v -4.095191 9.586721 3.460006
v -4.095191 9.586721 3.460006
v 2.942917 9.586721 -4.218704
v 3.175998 9.687822 -4.019398
v -3.613286 9.687822 3.790913
v 3.175998 9.687822 -4.019398
v -3.613286 9.687822 3.790913
v 3.158603 9.697859 4.157087
v 2.960968 9.610958 4.329123
v 3.524626 9.100779 3.896135
v -3.630688 9.697859 -3.653232
v -3.513494 9.100779 -3.782588
v -4.077149 9.610958 -3.349596
v 3.158603 9.697859 4.157087
v -3.630688 9.697859 -3.653232
v 2.960968 9.610958 4.329123
v -4.077149 9.610958 -3.349596
v 2.242381 9.231379 4.881122
v -4.795738 9.231379 -2.797599
v -4.795738 9.231379 -2.797599
v 2.242381 9.231379 4.881122
v 1.975069 8.847540 5.086466
v -5.063047 8.847540 -2.592257
v 1.975069 8.847540 5.086466
v -5.063047 8.847540 -2.592257
v 5.085238 8.837877 2.697314
v -1.952878 8.837877 -4.981404
v 4.760910 9.207254 2.946455
v -2.277205 9.207254 -4.732264
v 5.085238 8.837877 2.697314
v -1.952878 8.837877 -4.981404
v 4.760910 9.207254 2.946455
v -2.277205 9.207254 -4.732264
v 4.092365 9.586721 3.460007
v -2.945744 9.586721 -4.218712
v -2.945744 9.586721 -4.218712
v 4.092365 9.586721 3.460007
v 3.610675 9.687822 3.790919
v -3.178615 9.687822 -4.019401
v 3.610675 9.687822 3.790919
v -3.178615 9.687822 -4.019401
v 4.700600 0.946425 -1.856204
v 4.611078 0.946425 1.894468
v 0.000000 0.946425 0.047199
v 4.700600 1.601598 -1.856204
v 0.000000 1.601598 0.047199
v 4.611078 1.601598 1.894468
v 4.700600 0.946425 -1.856204
v 4.611078 0.946425 1.894468
v 4.611078 1.601598 1.894468
v 1.820453 0.946425 4.563035
v 1.820453 1.601598 4.563035
v 1.820453 1.601598 4.563035
v 1.820453 0.946425 4.563035
v -2.036570 0.946425 4.586286
v -2.036570 1.601598 4.586286
v -2.036570 0.946425 4.586286
v -2.036570 1.601598 4.586286
v -4.700600 0.946425 1.950603
v -4.700600 1.601598 1.950603
v -4.700600 1.601598 1.950603
v -4.700600 0.946425 1.950603
v -4.611078 0.946425 -1.800068
v -4.611078 1.601598 -1.800068
v -4.611078 0.946425 -1.800068
v -4.611078 1.601598 -1.800068
v -1.820453 0.946425 -4.468636
v -1.820453 1.601598 -4.468636
v -1.820453 1.601598 -4.468636
v -1.820453 0.946425 -4.468636
v 2.036571 0.946425 -4.491887
v 2.036571 1.601598 -4.491887
v 2.036571 0.946425 -4.491887
v 2.036571 1.601598 -4.491887
v 4.700600 1.601598 -1.856204
v 4.700600 0.946425 -1.856204
# 281 vertices

vt 0.000000 1.000000
vt 0.200511 0.065966
vt 0.200511 0.993874
vt -0.000092 0.065966
vt -0.000092 0.993874
vt 1.000050 0.005679
vt 1.000050 0.996643
vt 0.938841 0.996643
vt 0.938841 0.005679
vt 0.937986 0.036869
vt 0.850895 0.036869
vt 0.850895 0.995816
vt 0.851264 0.042046
vt 0.851264 0.991271
vt 0.786518 0.991271
vt 0.787494 0.096733
vt 0.564792 0.081802
vt 0.564792 0.994778
vt 0.781939 0.081802
vt 0.781939 0.994778
vt 0.444008 0.060131
vt 0.444008 0.997423
vt 0.566458 0.997423
vt 0.566458 0.060131
vt 0.439656 0.041364
vt 0.439656 0.996958
vt 0.335102 0.041364
vt 0.335102 0.996958
vt 0.328210 0.065865
vt 0.328210 1.003123
vt 0.205807 1.003123
vt 0.205807 0.065865
vt 0.944912 0.338076
vt 0.944912 0.005195
vt 0.998117 0.338076
vt 0.998117 0.005195
vt 0.798046 0.996544
vt 0.798046 0.881753
vt 0.843549 0.996544
vt 0.843549 0.881753
vt 0.385677 0.997160
vt 0.385677 0.877857
vt 0.204957 0.997160
vt 0.204957 0.877857
vt 0.003819 0.957785
vt 0.003819 0.913704
vt 0.199412 0.957785
vt 0.199412 0.913704
vt 0.491885 0.997040
vt 0.510079 0.985693
vt 0.477350 0.919077
vt 0.682993 0.023093
vt 0.650936 0.023093
vt 0.682993 0.018447
vt 0.650936 0.018447
vt 0.551803 0.936130
vt 0.650936 0.007790
vt 0.682993 0.007790
vt 0.567324 0.886011
vt 0.682993 0.003826
vt 0.650936 0.003826
vt 0.386734 0.884749
vt 0.405566 0.932980
vt 0.682993 0.049949
vt 0.650936 0.049949
vt 0.682993 0.045138
vt 0.650936 0.045138
vt 0.444384 0.982528
vt 0.650936 0.035225
vt 0.682993 0.035225
vt 0.464673 0.995729
vt 0.682993 0.030043
vt 0.650936 0.030043
vt 0.005282 0.043150
vt 0.005282 0.000633
vt 0.101913 0.000633
vt 0.101913 0.043150
vt 0.198543 0.043150
vt 0.198543 0.000633
vt 0.295174 0.000633
vt 0.295174 0.043150
vt 0.391805 0.043150
vt 0.391805 0.000633
vt 0.488435 0.000633
vt 0.488435 0.043150
vt 0.585066 0.043150
vt 0.585066 0.000633
vt 0.681697 0.000633
vt 0.681697 0.043150
vt 0.778327 0.043150
vt 0.778327 0.000633
# 91 texture coordinates

vn 0.000000 -1.000000 0.000000
vn 0.000000 1.000000 0.000000
vn 0.999994 0.000000 -0.003556
vn 0.590282 0.000000 0.807197
vn -0.004275 0.000000 0.999991
vn -0.604491 0.000000 0.796612
vn -0.999789 0.000000 -0.020548
vn -0.573267 0.000000 -0.819369
vn 0.004122 0.000000 -0.999991
vn 0.587541 0.000000 -0.809195
vn 0.607319 0.000000 0.794458
vn 0.735548 0.000000 -0.677473
vn -0.607320 0.000000 -0.794457
vn -0.735548 0.000000 0.677473
vn -0.620014 0.000000 0.784591
vn 0.812082 0.000000 0.583544
vn 0.620014 0.000000 -0.784591
vn -0.812086 0.000000 -0.583538
vn 0.000000 0.000000 1.000000
vn 1.000000 0.000000 0.000000
vn 0.000000 0.000000 -1.000000
vn -1.000000 0.000000 0.000000
vn -0.581756 0.000000 0.813363
vn 0.760650 0.000000 0.649162
vn 0.581755 0.000000 -0.813364
vn -0.760651 0.000000 -0.649161
vn 0.595537 0.000000 0.803328
vn 0.749017 0.000000 -0.662551
vn -0.595537 0.000000 -0.803328
vn -0.749014 0.000000 0.662554
vn 0.928633 0.354810 -0.108401
vn 0.970124 0.216706 -0.109075
vn 0.990066 0.140564 -0.003422
vn -0.928483 0.355170 -0.108504
vn -0.990045 0.140709 -0.003425
vn -0.970064 0.216921 -0.109183
vn 0.000000 0.997428 0.071680
vn 0.000000 0.975799 0.218669
vn 0.000000 0.887102 0.461574
vn 0.000000 0.781438 0.623983
vn 0.000000 -0.999999 0.001728
vn 0.000000 0.844819 -0.535053
vn 0.000000 0.906804 -0.421553
vn 0.974430 0.202884 0.096566
vn -0.974377 0.203091 0.096665
vn 0.000000 0.972874 -0.231334
vn 0.935262 0.341504 0.093057
vn -0.935124 0.341857 0.093148
vn 0.000000 0.996267 -0.086323
vn 0.077676 -0.182623 -0.980110
vn 0.076872 -0.110868 -0.990858
vn 0.002535 -0.071673 -0.997425
vn 0.077100 -0.181241 0.980412
vn 0.002518 -0.071128 0.997464
vn 0.076296 -0.110037 0.990995
vn 0.093337 0.995635 0.000000
vn 0.290003 0.957026 0.000000
vn 0.571835 0.820368 0.000000
vn 0.739935 0.672678 0.000000
vn 0.002380 -0.999997 0.000000
vn -0.657414 0.753529 0.000000
vn -0.534374 0.845248 0.000000
vn -0.067848 -0.103479 -0.992315
vn -0.067335 -0.102697 0.992431
vn -0.306731 0.951796 0.000000
vn -0.066291 -0.175297 -0.982281
vn -0.065795 -0.173962 0.982552
vn -0.114928 0.993374 0.000000
vn 0.599515 0.055091 -0.798465
vn 0.590077 0.032700 -0.806685
vn 0.610375 0.020263 -0.791853
vn -0.635211 0.052867 0.770527
vn -0.611655 0.021037 0.790845
vn -0.625510 0.029381 0.779663
vn 0.054093 0.997428 0.047022
vn 0.082563 0.993794 0.074543
vn 0.232221 0.949409 0.211413
vn 0.259194 0.936151 0.237571
vn 0.609185 0.000001 -0.793028
vn -0.609185 0.000000 0.793028
vn 0.431353 0.810937 0.395367
vn 0.554829 0.658445 0.508542
vn 0.001823 -0.999997 0.001671
vn -0.495141 0.740858 -0.453833
vn -0.404251 0.836236 -0.370526
vn 0.622857 0.025965 -0.781904
vn -0.591928 0.031247 0.805385
vn -0.243157 0.944398 -0.221332
vn -0.267609 0.931784 -0.245284
vn 0.632061 0.048328 -0.773410
vn -0.601962 0.054764 0.796645
vn -0.097366 0.991404 -0.087390
vn -0.071443 0.995510 -0.062103
vn 0.635086 0.052509 0.770655
vn 0.625377 0.029134 0.779779
vn 0.611638 0.020918 0.790861
vn -0.599433 0.055339 -0.798510
vn -0.610385 0.020381 -0.791843
vn -0.590001 0.032837 -0.806735
vn -0.113894 0.988548 0.099005
vn -0.083291 0.993788 0.073816
vn -0.232942 0.949394 0.210686
vn -0.203470 0.961155 0.186496
vn 0.609184 0.000000 0.793029
vn -0.609185 0.000004 -0.793028
vn -0.431353 0.810938 0.395367
vn -0.554829 0.658446 0.508541
vn -0.001823 -0.999997 0.001671
vn 0.495141 0.740859 -0.453833
vn 0.404251 0.836237 -0.370526
vn 0.592000 0.031131 0.805337
vn -0.622970 0.026188 -0.781807
vn 0.243885 0.944351 -0.220728
vn 0.216916 0.955729 -0.198819
vn 0.602038 0.054528 0.796604
vn -0.632166 0.048669 -0.773303
vn 0.098102 0.991385 -0.086790
vn 0.126147 0.985932 -0.109656
vn 0.999715 0.000000 0.023861
vn 0.914790 0.000000 0.403929
vn 0.375129 0.000000 0.926973
vn -0.377422 0.000000 0.926041
vn -0.927383 0.000000 0.374114
vn -0.914790 0.000000 -0.403929
vn -0.375129 0.000000 -0.926973
vn 0.377422 0.000000 -0.926041
vn 0.703315 0.000000 -0.710879
# 127 normals

g Regroup01
usemtl Material01
s 2
f 1/1/1 2/1/1 3/1/1
f 4/1/2 5/1/2 6/1/2
s 1
f 7/2/3 8/3/3 9/4/3
f 8/3/3 10/5/3 9/4/3
s 2
f 2/1/1 11/1/1 3/1/1
f 6/1/2 5/1/2 12/1/2
s 1
f 13/6/4 14/7/4 15/8/4
f 13/6/4 15/8/4 16/9/4
s 2
f 11/1/1 17/1/1 3/1/1
f 12/1/2 5/1/2 18/1/2
s 1
f 19/10/5 20/8/5 21/11/5
f 20/8/5 22/12/5 21/11/5
s 2
f 17/1/1 23/1/1 3/1/1
f 18/1/2 5/1/2 24/1/2
s 1
f 25/13/6 26/14/6 27/15/6
f 25/13/6 27/15/6 28/16/6
s 2
f 23/1/1 29/1/1 3/1/1
f 24/1/2 5/1/2 30/1/2
s 1
f 31/17/7 32/18/7 33/19/7
f 32/18/7 34/20/7 33/19/7
s 2
f 29/1/1 35/1/1 3/1/1
f 30/1/2 5/1/2 36/1/2
s 1
f 37/21/8 38/22/8 39/23/8
f 37/21/8 39/23/8 40/24/8
s 2
f 35/1/1 41/1/1 3/1/1
f 36/1/2 5/1/2 42/1/2
s 1
f 43/25/9 44/26/9 45/27/9
f 44/26/9 46/28/9 45/27/9
s 2
f 41/1/1 1/1/1 3/1/1
f 42/1/2 5/1/2 4/1/2
s 1
f 47/29/10 48/30/10 49/31/10
f 47/29/10 49/31/10 50/32/10
f 51/33/11 52/34/11 53/35/11
f 52/34/11 54/36/11 53/35/11
s 2
f 53/35/12 54/36/12 55/35/12
f 54/36/12 56/36/12 55/35/12
s 1
f 55/35/13 56/36/13 57/33/13
f 56/36/13 58/34/13 57/33/13
s 2
f 57/33/14 58/34/14 51/33/14
f 58/34/14 52/34/14 51/33/14
s 3
f 57/33/2 51/33/2 55/35/2
f 51/33/2 53/35/2 55/35/2
f 52/34/1 58/34/1 54/36/1
f 58/34/1 56/36/1 54/36/1
s 1
f 59/37/15 60/38/15 61/39/15
f 60/38/15 62/40/15 61/39/15
s 2
f 61/39/16 62/40/16 63/39/16
f 62/40/16 64/40/16 63/39/16
s 1
f 63/39/17 64/40/17 65/37/17
f 64/40/17 66/38/17 65/37/17
s 2
f 65/37/18 66/38/18 59/37/18
f 66/38/18 60/38/18 59/37/18
s 3
f 65/37/2 59/37/2 63/39/2
f 59/37/2 61/39/2 63/39/2
f 60/38/1 66/38/1 62/40/1
f 66/38/1 64/40/1 62/40/1
s 1
f 67/41/19 68/42/19 69/43/19
f 68/42/19 70/44/19 69/43/19
s 2
f 69/43/20 70/44/20 71/43/20
f 70/44/20 72/44/20 71/43/20
s 1
f 71/43/21 72/44/21 73/41/21
f 72/44/21 74/42/21 73/41/21
s 2
f 73/41/22 74/42/22 67/41/22
f 74/42/22 68/42/22 67/41/22
s 3
f 73/41/2 67/41/2 71/43/2
f 67/41/2 69/43/2 71/43/2
f 68/42/1 74/42/1 70/44/1
f 74/42/1 72/44/1 70/44/1
s 1
f 75/41/23 76/42/23 77/43/23
f 76/42/23 78/44/23 77/43/23
s 2
f 77/43/24 78/44/24 79/43/24
f 78/44/24 80/44/24 79/43/24
s 1
f 79/43/25 80/44/25 81/41/25
f 80/44/25 82/42/25 81/41/25
s 2
f 81/41/26 82/42/26 75/41/26
f 82/42/26 76/42/26 75/41/26
s 3
f 81/41/2 75/41/2 79/43/2
f 75/41/2 77/43/2 79/43/2
f 76/42/1 82/42/1 78/44/1
f 82/42/1 80/44/1 78/44/1
s 1
f 83/41/27 84/42/27 85/43/27
f 84/42/27 86/44/27 85/43/27
s 2
f 85/43/28 86/44/28 87/43/28
f 86/44/28 88/44/28 87/43/28
s 1
f 87/43/29 88/44/29 89/41/29
f 88/44/29 90/42/29 89/41/29
s 2
f 89/41/30 90/42/30 83/41/30
f 90/42/30 84/42/30 83/41/30
s 3
f 89/41/2 83/41/2 87/43/2
f 83/41/2 85/43/2 87/43/2
f 84/42/1 90/42/1 86/44/1
f 90/42/1 88/44/1 86/44/1
s 1
f 91/45/19 92/46/19 93/47/19
f 92/46/19 94/48/19 93/47/19
s 2
f 95/45/20 96/46/20 97/47/20
f 96/46/20 98/48/20 97/47/20
s 1
f 99/45/21 100/46/21 101/47/21
f 100/46/21 102/48/21 101/47/21
s 2
f 103/45/22 104/46/22 105/47/22
f 104/46/22 106/48/22 105/47/22
s 3
f 103/45/2 107/46/2 97/47/2
f 107/46/2 108/48/2 97/47/2
f 109/45/1 104/46/1 110/47/1
f 104/46/1 98/48/1 110/47/1
s 2
f 111/49/31 112/50/32 113/51/33
f 114/49/34 115/51/35 116/50/36
s 1
f 117/52/37 118/53/37 119/54/38
f 118/53/37 120/55/38 119/54/38
s 2
f 112/50/32 121/56/20 113/51/33
f 116/50/36 115/51/35 122/56/22
s 1
f 119/54/38 120/55/38 123/57/39
f 119/54/38 123/57/39 124/58/39
s 2
f 121/56/20 125/59/20 113/51/33
f 122/56/22 115/51/35 126/59/22
s 1
f 124/58/39 123/57/39 127/60/40
f 123/57/39 128/61/40 127/60/40
s 2
f 125/59/20 129/62/20 113/51/33
f 126/59/22 115/51/35 130/62/22
s 1
f 125/59/41 126/59/41 130/62/41
f 125/59/41 130/62/41 129/62/41
s 2
f 129/62/20 131/63/20 113/51/33
f 130/62/22 115/51/35 132/63/22
s 1
f 133/64/42 134/65/42 135/66/43
f 134/65/42 136/67/43 135/66/43
s 2
f 131/63/20 137/68/44 113/51/33
f 132/63/22 115/51/35 138/68/45
s 1
f 135/66/43 136/67/43 139/69/46
f 135/66/43 139/69/46 140/70/46
s 2
f 137/68/44 141/71/47 113/51/33
f 138/68/45 115/51/35 142/71/48
s 1
f 140/70/46 139/69/46 143/72/49
f 139/69/46 144/73/49 143/72/49
s 2
f 141/71/47 111/49/31 113/51/33
f 142/71/48 115/51/35 114/49/34
s 1
f 143/72/49 144/73/49 118/53/37
f 143/72/49 118/53/37 117/52/37
s 2
f 145/49/50 146/50/51 147/51/52
f 148/49/53 149/51/54 150/50/55
s 1
f 151/52/56 152/53/56 153/54/57
f 152/53/56 154/55/57 153/54/57
s 2
f 146/50/51 155/56/21 147/51/52
f 150/50/55 149/51/54 156/56/19
s 1
f 153/54/57 154/55/57 157/57/58
f 153/54/57 157/57/58 158/58/58
s 2
f 155/56/21 159/59/21 147/51/52
f 156/56/19 149/51/54 160/59/19
s 1
f 158/58/58 157/57/58 161/60/59
f 157/57/58 162/61/59 161/60/59
s 2
f 159/59/21 163/62/21 147/51/52
f 160/59/19 149/51/54 164/62/19
s 1
f 159/59/60 160/59/60 164/62/60
f 159/59/60 164/62/60 163/62/60
s 2
f 163/62/21 165/63/21 147/51/52
f 164/62/19 149/51/54 166/63/19
s 1
f 167/64/61 168/65/61 169/66/62
f 168/65/61 170/67/62 169/66/62
s 2
f 165/63/21 171/68/63 147/51/52
f 166/63/19 149/51/54 172/68/64
s 1
f 169/66/62 170/67/62 173/69/65
f 169/66/62 173/69/65 174/70/65
s 2
f 171/68/63 175/71/66 147/51/52
f 172/68/64 149/51/54 176/71/67
s 1
f 174/70/65 173/69/65 177/72/68
f 173/69/65 178/73/68 177/72/68
s 2
f 175/71/66 145/49/50 147/51/52
f 176/71/67 149/51/54 148/49/53
s 1
f 177/72/68 178/73/68 152/53/56
f 177/72/68 152/53/56 151/52/56
s 2
f 179/49/69 180/50/70 181/51/71
f 182/49/72 183/51/73 184/50/74
s 1
f 185/52/75 186/53/76 187/54/77
f 186/53/76 188/55/78 187/54/77
s 2
f 180/50/70 189/56/79 181/51/71
f 184/50/74 183/51/73 190/56/80
s 1
f 187/54/77 188/55/78 191/57/81
f 187/54/77 191/57/81 192/58/81
s 2
f 189/56/79 193/59/79 181/51/71
f 190/56/80 183/51/73 194/59/80
s 1
f 192/58/81 191/57/81 195/60/82
f 191/57/81 196/61/82 195/60/82
s 2
f 193/59/79 197/62/79 181/51/71
f 194/59/80 183/51/73 198/62/80
s 1
f 193/59/83 194/59/83 198/62/83
f 193/59/83 198/62/83 197/62/83
s 2
f 197/62/79 199/63/79 181/51/71
f 198/62/80 183/51/73 200/63/80
s 1
f 201/64/84 202/65/84 203/66/85
f 202/65/84 204/67/85 203/66/85
s 2
f 199/63/79 205/68/86 181/51/71
f 200/63/80 183/51/73 206/68/87
s 1
f 203/66/85 204/67/85 207/69/88
f 203/66/85 207/69/88 208/70/89
s 2
f 205/68/86 209/71/90 181/51/71
f 206/68/87 183/51/73 210/71/91
s 1
f 208/70/89 207/69/88 211/72/92
f 207/69/88 212/73/93 211/72/92
s 2
f 209/71/90 179/49/69 181/51/71
f 210/71/91 183/51/73 182/49/72
s 1
f 211/72/92 212/73/93 186/53/76
f 211/72/92 186/53/76 185/52/75
s 2
f 213/49/94 214/50/95 215/51/96
f 216/49/97 217/51/98 218/50/99
s 1
f 219/52/100 220/53/101 221/54/102
f 220/53/101 222/55/103 221/54/102
s 2
f 214/50/95 223/56/104 215/51/96
f 218/50/99 217/51/98 224/56/105
s 1
f 221/54/102 222/55/103 225/57/106
f 221/54/102 225/57/106 226/58/106
s 2
f 223/56/104 227/59/104 215/51/96
f 224/56/105 217/51/98 228/59/105
s 1
f 226/58/106 225/57/106 229/60/107
f 225/57/106 230/61/107 229/60/107
s 2
f 227/59/104 231/62/104 215/51/96
f 228/59/105 217/51/98 232/62/105
s 1
f 227/59/108 228/59/108 232/62/108
f 227/59/108 232/62/108 231/62/108
s 2
f 231/62/104 233/63/104 215/51/96
f 232/62/105 217/51/98 234/63/105
s 1
f 235/64/109 236/65/109 237/66/110
f 236/65/109 238/67/110 237/66/110
s 2
f 233/63/104 239/68/111 215/51/96
f 234/63/105 217/51/98 240/68/112
s 1
f 237/66/110 238/67/110 241/69/113
f 237/66/110 241/69/113 242/70/114
s 2
f 239/68/111 243/71/115 215/51/96
f 240/68/112 217/51/98 244/71/116
s 1
f 242/70/114 241/69/113 245/72/117
f 241/69/113 246/73/118 245/72/117
s 2
f 243/71/115 213/49/94 215/51/96
f 244/71/116 217/51/98 216/49/97
s 1
f 245/72/117 246/73/118 220/53/101
f 245/72/117 220/53/101 219/52/100
s 2
f 247/74/1 248/74/1 249/74/1
f 250/74/2 251/74/2 252/74/2
s 1
f 253/75/119 250/74/119 254/76/120
f 250/74/119 255/77/120 254/76/120
s 2
f 248/74/1 256/74/1 249/74/1
f 252/74/2 251/74/2 257/74/2
s 1
f 254/76/120 255/77/120 258/78/121
f 254/76/120 258/78/121 259/79/121
s 2
f 256/74/1 260/74/1 249/74/1
f 257/74/2 251/74/2 261/74/2
s 1
f 259/79/121 258/78/121 262/80/122
f 258/78/121 263/81/122 262/80/122
s 2
f 260/74/1 264/74/1 249/74/1
f 261/74/2 251/74/2 265/74/2
s 1
f 262/80/122 263/81/122 266/82/123
f 262/80/122 266/82/123 267/83/123
s 2
f 264/74/1 268/74/1 249/74/1
f 265/74/2 251/74/2 269/74/2
s 1
f 267/83/123 266/82/123 270/84/124
f 266/82/123 271/85/124 270/84/124
s 2
f 268/74/1 272/74/1 249/74/1
f 269/74/2 251/74/2 273/74/2
s 1
f 270/84/124 271/85/124 274/86/125
f 270/84/124 274/86/125 275/87/125
s 2
f 272/74/1 276/74/1 249/74/1
f 273/74/2 251/74/2 277/74/2
s 1
f 275/87/125 274/86/125 278/88/126
f 274/86/125 279/89/126 278/88/126
s 2
f 276/74/1 247/74/1 249/74/1
f 277/74/2 251/74/2 250/74/2
s 1
f 278/88/126 279/89/126 280/90/127
f 278/88/126 280/90/127 281/91/127
# 264 triangles in group

# 264 triangles total

